/vscmnt/brussel_pixiu_data/_data_brussel/112/vsc11236/PredSimResults/SUBJ09opt3D/weighted-expIG/worker_02.mot
version=1
nRows=4
nColumns=50
inDegrees=yes
endheader
                time	         pelvis_tilt	         pelvis_list	     pelvis_rotation	           pelvis_tx	           pelvis_ty	           pelvis_tz	       hip_flexion_r	     hip_adduction_r	      hip_rotation_r	        knee_angle_r	       ankle_angle_r	         mtp_angle_r	       hip_flexion_l	     hip_adduction_l	      hip_rotation_l	        knee_angle_l	       ankle_angle_l	         mtp_angle_l	    lumbar_extension	      lumbar_bending	     lumbar_rotation	 ercspn_r/activation	 intobl_r/activation	 extobl_r/activation	    abd_r/activation	    add_r/activation	hamstrings_r/activation	bifemsh_r/activation	glut_max_r/activation	iliopsoas_r/activation	rect_fem_r/activation	  vasti_r/activation	gastroc_r/activation	 soleus_r/activation	tib_ant_r/activation	 ercspn_l/activation	 intobl_l/activation	 extobl_l/activation	    abd_l/activation	    add_l/activation	hamstrings_l/activation	bifemsh_l/activation	glut_max_l/activation	iliopsoas_l/activation	rect_fem_l/activation	  vasti_l/activation	gastroc_l/activation	 soleus_l/activation	tib_ant_l/activation	
          1.30832468	         -4.23630718	         -0.97769778	          7.73003416	          1.53073988	          0.99009200	         -0.00114217	         28.48256173	         -0.96104446	         -8.38756283	         -6.20325210	          3.49359295	          0.24167828	        -13.29443415	         -2.39913774	         -5.85943915	        -11.38624285	          3.43247879	         38.02496509	        -13.10464139	         -1.36152751	         -7.93135247	          0.02815107	          0.14982232	          0.03366843	          0.00999999	          0.27256277	          0.05164020	          0.08349239	          0.09518488	          0.11459893	          0.01527477	          0.00999999	          0.01428190	          0.01483654	          0.32726705	          0.03502829	          0.00999999	          0.00999999	          0.03070841	          0.01218053	          0.02457239	          0.21846407	          0.01282594	          0.05069648	          0.00999999	          0.00999999	          0.30150561	          0.22221265	          0.01185099	
          1.32140793	         -4.27831213	         -1.09989795	          7.69089272	          1.55115552	          0.98787167	         -0.00034054	         28.26110976	         -0.75961458	         -8.57648596	         -7.78243140	          3.08607595	          0.20705798	        -13.79432925	         -2.76484917	         -6.34301785	        -12.43237147	          2.27202497	         39.66136073	        -12.53284210	         -0.87351284	         -8.06988077	          0.02311151	          0.12300137	          0.02764116	          0.07837419	          0.22376902	          0.06177878	          0.06854572	          0.11673373	          0.09408361	          0.01254030	          0.00999999	          0.01218053	          0.01218053	          0.36691283	          0.02875758	          0.00999999	          0.00999999	          0.02521104	          0.00999999	          0.02209873	          0.17935498	          0.01052986	          0.04491578	          0.00999999	          0.00999999	          0.26785258	          0.19802549	          0.00999999	
          1.33449118	         -4.30022694	         -1.23804270	          7.61980377	          1.57177723	          0.98597861	          0.00055688	         27.93660601	         -0.54027476	         -8.78166527	         -9.21167752	          2.49100613	          0.19846933	        -14.06499788	         -3.18010996	         -6.84174349	        -13.92476952	          0.97856439	         41.20562742	        -11.95542129	         -0.36815702	         -8.16942190	          0.02146026	          0.10098186	          0.02269289	          0.13148805	          0.22395105	          0.05871244	          0.05627477	          0.14507380	          0.07724092	          0.01029536	          0.00999999	          0.00999999	          0.00999999	          0.41316152	          0.02360945	          0.00999999	          0.00999999	          0.02069780	          0.00999999	          0.02870174	          0.14724714	          0.00999999	          0.08307423	          0.00999999	          0.00999999	          0.21990204	          0.16257528	          0.00999999	
          1.34757442	         -4.30498826	         -1.38514951	          7.51848079	          1.59219388	          0.98463743	          0.00156096	         27.66424435	         -0.31593153	         -9.00904057	        -10.74178335	          1.93019942	          0.16442262	        -13.99939316	         -3.64850425	         -7.34971992	        -16.00602458	         -0.41238213	         42.45352346	        -11.41998650	          0.14767116	         -8.22857577	          0.02852460	          0.08290425	          0.01863044	          0.18477415	          0.23107803	          0.06007707	          0.04620055	          0.15441880	          0.06341337	          0.00999999	          0.11651112	          0.00999999	          0.00999999	          0.43697584	          0.07899336	          0.00999999	          0.00999999	          0.01699251	          0.04289251	          0.04172697	          0.12088719	          0.00999999	          0.07135908	          0.00999999	          0.00999999	          0.18053553	          0.13347131	          0.00999999	
